#format: frame checksums
#version: 1
#hash: MD5
#tb 0: 1/30
#stream#, dts,        pts, duration,     size, hash
0,          0,          0,        1,  3110400, 7dde8cd136ab4b04a95d9856b941697e
0,          1,          1,        1,  3110400, aa885f78cb6374b5bfcc66a4fc57026f
0,          2,          2,        1,  3110400, b69b7b56f549a3f9b0a603940bac85ed
0,          3,          3,        1,  3110400, 20e2e0f0c89c58828b6a3b10d9e175e5
0,          4,          4,        1,  3110400, 483997936e7d6bb849e64d50426ec689
0,          5,          5,        1,  3110400, c85ef97a853ff594e2bfdf0a0a581dcc
0,          6,          6,        1,  3110400, c5e7b9ff4c25391793446da788cb83a9
0,          7,          7,        1,  3110400, 63f93e89d24162e2f6328edbc6716b33
0,          8,          8,        1,  3110400, 0e346ab4831ce8c69001153c72b7b827
0,          9,          9,        1,  3110400, c526c21511d8bec2659d3d43d93734f2
0,         10,         10,        1,  3110400, e95d01d5f9fb81a98bd34305c7ab30f8
0,         11,         11,        1,  3110400, 177e75e7516e8746d31b43ea9d39e6b1
0,         12,         12,        1,  3110400, 489d2bc0da93f118dc9a2697275697a7
0,         13,         13,        1,  3110400, a2dc00d627350ff1ab302bcbad5ca5ac
0,         14,         14,        1,  3110400, 20ce143831b0189f763ee5bee9c51188
0,         15,         15,        1,  3110400, 7822fd908bd81b521c23fa4a639caf9e
0,         16,         16,        1,  3110400, dabc4febbe09734126ac6f5a5180ba8c
0,         17,         17,        1,  3110400, ef88f0d6667feefac1471b065208e1c8
0,         18,         18,        1,  3110400, 7c7fc665a6fd9e19af9358bbdc162a51
0,         19,         19,        1,  3110400, f2bcf32f734f99506bdd0a0376badf82
0,         20,         20,        1,  3110400, 06809c2d277fd3b3918ebb4b65c27661
0,         21,         21,        1,  3110400, e403e9e86fa5d519f65c565b3add84b5
0,         22,         22,        1,  3110400, d2b876730e12245cacb578307794349a
0,         23,         23,        1,  3110400, dfdfd8cb626a96138f6a2c1953dcf5ec
0,         24,         24,        1,  3110400, 0ac58c28575b804d9e63395653c3aef2
0,         25,         25,        1,  3110400, 641f2a78e338c733ef159bd36ec7966f
0,         26,         26,        1,  3110400, 9402d455fa5bd556b85f479c42c3a4d2
0,         27,         27,        1,  3110400, 0044d42b4048bc93112aa59789dbdc2d
0,         28,         28,        1,  3110400, 5d9e5c5ba35f6f452e5f31ccff9e819c
0,         29,         29,        1,  3110400, 307a55a94739b4cfdf41f7da7e5c0135
